<?xml version="1.0" encoding="utf-8"?>
<!-- Generator: Adobe Illustrator 16.0.0, SVG Export Plug-In . SVG Version: 6.00 Build 0)  -->
<!DOCTYPE svg PUBLIC "-//W3C//DTD SVG 1.1//EN" "http://www.w3.org/Graphics/SVG/1.1/DTD/svg11.dtd">
<svg version="1.1" id="Layer_1" xmlns="http://www.w3.org/2000/svg" xmlns:xlink="http://www.w3.org/1999/xlink" x="0px" y="0px"
	 width="800px" height="800px" viewBox="0 0 800 800" enable-background="new 0 0 800 800" xml:space="preserve">
<g>
	<path fill="#FFFFFF" d="M737.011,741.669l-57.849-436.973l-12.399-19.917l-12.645,19.917h-3.107l-12.496-20.226l-12.492,20.226
		h-3.067L610.46,284.47l-12.496,20.226h-3.066L582.4,284.47l-12.49,20.226h-3.067l-12.496-20.226l-12.495,20.226h-3.067
		l-12.496-20.226l-12.492,20.226h-3.067l-12.494-20.226l-12.493,20.226h-3.068l-12.494-20.226l-12.496,20.226h-3.068l-12.491-20.226
		l-12.495,20.226h-3.067l-12.493-20.226l-12.493,20.226h-3.069l-12.494-20.226l-12.494,20.226h-3.066l-12.496-20.226l-12.496,20.226
		h-3.066l-12.496-20.226l-12.496,20.226h-3.063l-12.497-20.226l-12.496,20.226h-3.064l-12.495-20.226l-12.496,20.226h-3.066
		l-12.496-20.226l-12.496,20.226h-3.064l-12.495-20.226l-12.496,20.226h-3.064l-12.496-20.226l-12.495,20.226h-3.065l-12.497-20.226
		l-12.495,20.226H146l-12.496-20.226l-12.667,20.226L62.989,741.669c-1.605,10.486,1.448,21.152,8.356,29.202
		c6.91,8.05,16.99,12.681,27.597,12.681h602.116c10.607,0,20.686-4.631,27.596-12.681
		C735.565,762.821,738.617,752.155,737.011,741.669z M600.712,659.403v32.092v13.061h-13.056H378.932h-7.527H212.343h-13.056
		v-13.061V395.182v-13.06h13.056h160.741h13.057v13.06v32.093v13.058h-13.057H263.64v67.525h98.938h13.057v13.06v31.655v13.06
		h-13.057H263.64v80.712h107.485l140.821-206.012h-85.634h-13.057v-13.058v-32.093v-13.06h13.057h159.146h13.057v13.06v23.299v4.033
		l-2.271,3.331L445.77,646.345h141.887h13.056V659.403z"/>
	<g>
		<path fill="#FFFFFF" d="M630.771,266.296l-1.333-9.159c-0.077-0.532-8.429-55.13-41.295-108.664
			C544.998,78.2,481.657,42.568,399.879,42.568c-82.068,0-145.557,35.871-188.699,106.615
			c-32.65,53.539-40.782,107.416-40.86,107.954l-1.331,9.161l-26.39-0.001l1.881-12.925c0.352-2.412,9.007-59.744,44.407-117.792
			c47.53-77.937,120.489-119.132,210.993-119.132c90.504,0,163.462,41.195,210.993,119.132
			c35.398,58.048,44.056,115.38,44.407,117.792l1.881,12.925L630.771,266.296z"/>
		<path fill="#FFFFFF" d="M577.545,266.296l-0.547-4.25c-0.062-0.471-6.511-48.258-31.971-95.162
			c-33.352-61.445-82.188-92.599-145.148-92.599c-62.962,0-111.797,31.154-145.149,92.599c-25.46,46.904-31.909,94.69-31.971,95.167
			l-0.554,4.247l-18.801-0.001l0.856-6.639c0.268-2.069,6.848-51.265,33.814-101.188c36.34-67.28,92.293-102.843,161.805-102.843
			c69.513,0,125.464,35.563,161.806,102.843c26.965,49.923,33.544,99.119,33.813,101.188l0.855,6.637H577.545z"/>
	</g>
</g>
</svg>
