<?xml version="1.0" encoding="UTF-8" standalone="no"?>
<!-- Created with Inkscape (http://www.inkscape.org/) -->

<svg
   xmlns:dc="http://purl.org/dc/elements/1.1/"
   xmlns:cc="http://creativecommons.org/ns#"
   xmlns:rdf="http://www.w3.org/1999/02/22-rdf-syntax-ns#"
   xmlns:svg="http://www.w3.org/2000/svg"
   xmlns="http://www.w3.org/2000/svg"
   xmlns:sodipodi="http://sodipodi.sourceforge.net/DTD/sodipodi-0.dtd"
   xmlns:inkscape="http://www.inkscape.org/namespaces/inkscape"
   version="1.1"
   id="svg12377"
   xml:space="preserve"
   width="800"
   height="800"
   viewBox="0 0 800 800"
   sodipodi:docname="Denmark-flag-paint-publicdomainvectors.org.svg"
   inkscape:version="0.92.4 (5da689c313, 2019-01-14)"><metadata
     id="metadata12383"><rdf:RDF><cc:Work
         rdf:about=""><dc:format>image/svg+xml</dc:format><dc:type
           rdf:resource="http://purl.org/dc/dcmitype/StillImage" /><dc:title></dc:title></cc:Work></rdf:RDF></metadata><defs
     id="defs12381"><clipPath
       clipPathUnits="userSpaceOnUse"
       id="clipPath12393"><path
         d="M 0,600 H 600 V 0 H 0 Z"
         id="path12391"
         inkscape:connector-curvature="0" /></clipPath></defs><sodipodi:namedview
     pagecolor="#ffffff"
     bordercolor="#666666"
     borderopacity="1"
     objecttolerance="10"
     gridtolerance="10"
     guidetolerance="10"
     inkscape:pageopacity="0"
     inkscape:pageshadow="2"
     inkscape:window-width="1920"
     inkscape:window-height="1018"
     id="namedview12379"
     showgrid="false"
     inkscape:zoom="0.82116393"
     inkscape:cx="406.77966"
     inkscape:cy="374.57627"
     inkscape:window-x="-8"
     inkscape:window-y="-8"
     inkscape:window-maximized="1"
     inkscape:current-layer="g12385" /><g
     id="g12385"
     inkscape:groupmode="layer"
     inkscape:label="Denmark-flag-paint-publicdomainvectors.org"
     transform="matrix(1.3333333,0,0,-1.3333333,0,800)"><g
       id="g12387"><g
         id="g12389"
         clip-path="url(#clipPath12393)"><path
           d="M 600,0 H 0 v 599.359 h 600 z"
           style="fill:#231f20;fill-opacity:1;fill-rule:nonzero;stroke:none"
           id="path12395"
           inkscape:connector-curvature="0" /><path
           d="m 340.15,251.199 c 0.02,0.025 0.039,0.054 0.063,0.092 -0.02,-0.032 -0.041,-0.062 -0.063,-0.092"
           style="fill:#296eb9;fill-opacity:1;fill-rule:nonzero;stroke:none"
           id="path12397"
           inkscape:connector-curvature="0" /><path
           d="m 27.244,259.076 c -0.032,0.008 -0.063,0.014 -0.096,0.022 -1.271,-0.696 -0.761,-0.457 0.096,-0.022"
           style="fill:#cd264e;fill-opacity:1;fill-rule:nonzero;stroke:none"
           id="path12399"
           inkscape:connector-curvature="0" /><path
           d="m 565.688,437.537 c -4.607,-0.502 -9.167,-0.869 -12.915,0 z M 553.967,381.07 c -0.766,2.785 -0.178,7.065 1.904,7.827 8.928,-0.187 14.4,2.649 21.279,3.187 6.217,0.48 11.771,-0.918 13.832,2.13 -7.834,0.825 -10.445,-2.617 -15.956,0 1.999,0.557 8.654,1.861 6.372,3.186 -1.25,-0.156 -2.41,-1.886 -3.186,0 -0.237,3.836 10.296,2.406 7.448,5.317 -4.523,-0.238 -14.576,-2.168 -22.342,0 4.211,0.025 4.667,3.03 3.199,4.261 0.45,-1.762 -3.974,0.093 -4.26,1.062 1.587,0.193 3.923,-0.381 4.26,1.063 -3.348,-0.506 -4.348,1.324 -5.322,3.192 1.737,-0.775 4.621,2.111 2.123,2.117 0.463,-1.755 -3.966,0.101 -4.259,1.075 2.773,0.456 8.183,-0.143 11.707,2.124 6.504,1.955 -6.498,-0.199 -6.385,2.124 3.447,-0.605 4.953,0.732 7.447,1.069 7.172,-0.35 2.373,1.892 -2.125,1.068 -4.797,-1.618 -16.53,-1.887 -21.272,0 6.491,1.986 16.862,0.931 21.272,2.118 -8.952,1.762 5.036,0.863 4.249,4.261 -2.542,3.292 -5.636,-1.068 -8.509,-1.063 -3.642,0.007 -6.884,2.481 -10.634,3.187 5.847,0.188 12.383,-0.325 14.894,3.198 -0.212,3.33 -6.209,0.888 -7.446,3.188 6.048,0.692 14.869,-1.401 19.141,1.074 -2.266,0.587 -4.926,0.638 -7.755,0.471 0.101,0.076 0.214,0.141 0.309,0.224 h -3.186 c 2.836,2.742 -2.45,1.118 -1.063,5.317 2.111,-0.012 1.35,-2.9 4.249,-2.124 0.474,4.016 -5.548,1.53 -6.373,4.254 4.187,-0.293 7.384,0.406 8.509,3.186 -3.686,0.575 -10.096,-1.58 -10.645,2.131 8.046,0.469 13.95,3.073 19.155,6.378 -2.825,-1.262 -5.91,0.201 -9.572,0 -11.051,-0.587 -25.77,-3.623 -29.788,4.255 2.037,0.881 10.571,0.687 8.509,2.136 -6.522,1.519 -12.714,-2.855 -17.024,0 4.354,-1.287 7.772,2.25 11.708,3.193 2.217,0.524 4.029,-0.394 6.378,0 1.562,0.256 3.793,1.8 5.31,2.125 2.488,0.517 7.266,-2.044 7.46,2.13 -8.71,-2.987 -17.274,0.624 -25.54,1.061 -3.262,0.169 -7.034,-1.486 -10.633,-1.061 -2.08,0.237 -4.568,0.956 -6.385,2.13 -2.111,2.449 0.269,1.169 1.063,3.186 -4.799,-0.206 -12.777,-2.793 -17.02,0 5.518,1.736 11.008,-1.286 15.957,2.124 -3.361,2.268 -10.008,-3.573 -5.323,2.131 -3.573,0.662 -9.878,-1.368 -11.702,1.068 1.775,0.12 9.641,-0.587 6.385,1.056 -4.654,0.662 -8.508,2.13 -12.77,3.199 4.224,0.737 11.789,-1.856 12.77,2.117 -6.191,0.194 -11.757,-1.986 -17.024,0 3.223,1.407 9.122,0.113 11.707,2.137 -1.886,0.237 -5.328,-1.081 -4.253,2.118 3.554,-0.256 6.703,-2.28 8.509,1.069 -3.618,2.587 -7.498,-1.313 -10.64,2.124 3.386,1.587 9.922,0.011 12.763,2.131 -3.341,-1.219 -2.58,1.679 -4.254,2.129 -1.762,-1.862 -4.56,0.744 -7.447,1.063 -1.3,0.144 -1.5,-1.162 -3.186,-1.063 -5.286,0.313 -10.11,1.95 -12.771,2.124 0.801,2.406 5.961,0.419 8.51,1.063 1.494,-0.082 4.074,0.237 2.131,1.068 -1.768,-0.006 -3.549,0 -5.317,0 -1.074,0.837 -2.663,0.662 -4.261,3.199 4.955,1.15 8.784,-1.856 10.639,0 0.175,0.156 -8.633,2.13 -9.565,1.062 -1.367,0.056 -1.475,1.356 -3.198,1.063 -2.775,-2.606 -2.349,0.217 -3.187,1.061 -2.255,2.249 -11.008,-2.337 -10.645,2.13 6.329,0.051 13.631,-0.874 15.956,3.192 2.173,-0.967 6.984,-2.135 8.509,1.063 -3.511,-1.505 -2.649,2.168 -4.248,2.125 0.387,0.012 -1.375,-4.067 -4.261,-2.125 0.886,3.411 0.912,2.199 -1.063,4.255 11.259,0.244 23.779,-0.581 30.852,1.055 -8.097,3.687 -16.545,1.494 -25.528,1.069 -29.713,-1.381 -62.195,0.599 -89.365,2.13 8.516,0.7 19.842,-1.411 26.596,1.069 -1.861,0.968 -5.304,0.355 -6.379,2.117 6.678,3.612 19.961,0.607 27.652,3.193 -3.618,1.45 -7.847,0.012 -9.572,0 -2.187,-0.012 -5.61,0.737 -7.441,1.062 -17.586,3.149 -34.692,3.192 -54.259,3.192 -8.46,0 -17.73,0.844 -25.528,0 -3.073,-0.331 -6.447,-1.874 -9.584,-2.124 -7.391,-0.599 -15.056,0.807 -22.34,0 -4.455,-0.5 -8.209,-2.693 -12.752,-3.186 -6.07,-0.663 -12.359,-0.417 -18.571,-0.445 V 381.07 Z"
           style="fill:#cd264e;fill-opacity:1;fill-rule:nonzero;stroke:none"
           id="path12401"
           inkscape:connector-curvature="0" /><path
           d="m 227.452,524.652 c -3.254,-0.765 -6.64,-1.681 -9.885,-2.087 -13.319,-1.649 -26.752,-6.097 -37.222,-5.31 -0.188,-5.904 -8.909,0.949 -8.516,-1.063 0.656,-0.061 1.269,-0.169 1.068,-1.067 -0.281,-1.5 -2.335,-1.213 -3.192,-2.125 -5.005,-0.618 -7.509,-1.144 -10.64,-2.13 -3.373,-1.061 -7.734,-3.442 -9.578,-4.255 -2.829,-1.249 -6.427,-2.024 -9.563,-3.198 -6.386,-2.381 -12.72,-5.717 -18.093,-7.447 -2.756,-0.881 -7.386,-4.505 -9.572,0 0.656,3.248 5.722,2.086 6.385,5.323 -3.223,-0.257 -7.759,-5.873 -9.583,-1.063 0.737,2.106 6.347,-0.662 5.323,3.187 -4.186,1.212 -7.391,-3.205 -8.51,1.068 0.338,2.499 3.293,2.38 4.261,4.261 -5.635,-1.262 -4.811,-2.631 -7.46,1.063 -2.637,3.685 -4.785,9.945 -8.508,7.446 2.348,-0.912 4.342,-7.647 2.137,-9.571 -2.188,4.554 -3.837,9.628 -8.51,11.696 -0.324,-2.088 1.431,-2.112 2.124,-3.188 0.862,-1.349 1.405,-3.879 2.124,-5.322 1.899,-3.805 7.622,-10.415 5.323,-13.832 -0.475,5.36 -3.499,6.803 -5.323,9.577 -2.355,3.574 -2.83,8.222 -6.379,10.64 2.718,-6.778 4.455,-10.421 7.441,-17.025 -0.181,0.413 0.663,1.238 1.063,0 0.112,-0.331 2.148,-4.085 2.137,-5.323 -0.014,-0.737 -1.244,-1.68 -1.076,-2.13 1.076,-2.749 7.111,-4.205 3.199,-7.441 -2.399,0.443 0.163,5.83 -3.199,5.323 -0.936,-3.174 3.324,-6.485 1.076,-7.453 -2.163,3.523 -2.725,8.628 -6.386,10.64 -1.462,-2.424 2.743,-4.005 0,-4.255 -2.448,4.505 -4.036,10.09 -6.378,14.894 -0.92,1.874 -1.469,4.155 -2.131,5.324 -3.486,6.097 0.924,-6.348 -1.068,-7.455 1.53,-2.348 2.592,1.337 3.199,-1.061 -0.319,-2.868 4.441,-6.079 1.061,-8.516 0.063,2.299 -1.255,8.553 -3.192,5.324 3.399,-0.801 -1.112,-7.867 1.063,-7.442 0,0.588 0.855,1.206 1.068,0 -0.182,-3.168 2.461,-7.129 1.061,-11.708 -1.336,4.505 -3.217,11.153 -6.385,10.64 -0.725,2.824 -1.68,5.423 -3.192,7.447 -3.662,-3.067 3.411,-8.01 0,-10.633 0.613,3.666 -3.511,6.347 -5.317,9.565 -1.087,1.956 -1.23,4.785 -2.13,6.384 -0.675,1.212 -2.625,2.218 -3.192,3.2 0.505,-0.882 1.18,3.904 -1.063,1.061 3.042,-1.236 -1.718,-1.236 -2.124,0 -0.956,-3.53 5.905,-4.617 3.187,-6.385 0.075,2.619 -2.481,1.631 -4.255,3.187 -3.037,2.68 -5.423,8.709 -8.509,7.453 3.611,-4.185 8.246,-7.353 9.577,-13.832 -2.23,0.3 -2.418,3.404 -3.199,4.255 -1.955,2.161 -1.768,1.249 -4.254,2.124 -0.1,-4.705 5.811,-3.405 5.323,-8.51 0.318,-2.449 -3.074,-1.174 -3.193,-3.185 1.356,-1.556 4.798,-6.449 3.193,-7.448 -2.931,2.031 -6.348,3.592 -7.447,7.448 -5.973,0.186 3.699,-3.587 0,-4.261 -0.013,1.074 -1.869,1.343 -2.131,0 3.205,-3.193 9.665,-8.747 7.453,-13.82 -0.7,3.561 -4.073,4.436 -5.322,7.441 0.699,-7.116 6.178,-15.069 4.254,-21.279 -1.399,4.174 -2.118,11.408 -5.322,10.645 0.293,1.357 1.068,1.469 1.068,3.193 0,6.085 -1.45,-2.443 -1.068,-2.13 -0.801,-0.669 -5.155,4.285 -5.318,3.185 0.138,-3.804 5.961,-7.453 2.124,-11.701 0.213,3.049 0.139,5.798 -3.185,5.323 -1.306,-2.574 2.523,-2.224 2.124,-4.255 -0.069,-0.368 -2.574,-1.106 -2.124,-2.136 0.28,-0.625 3.898,-0.3 3.185,-2.124 -2.205,-0.594 -2.249,-1.662 -1.061,-3.193 -1.293,0.337 -3.662,-3.074 -1.063,-3.192 0.239,0.83 0.026,2.105 1.063,2.13 0.612,-3.443 -0.319,-5.354 -2.124,-6.385 1.296,-3.264 2.264,-7.569 2.98,-11.626 h 1.266 c -0.022,-1.899 -1.28,-5.349 -1.061,-7.162 0.376,-2.937 2.287,-5.636 2.131,-8.503 -0.062,-1.287 -2.231,-1.105 -2.131,-2.137 0.014,-0.081 1.963,0.087 2.131,0 2.318,-1.037 -1.043,-2.462 -1.062,-2.124 0.132,-2.143 1.893,-4.523 2.125,-7.441 0.118,-1.448 -1.269,-3.649 -1.063,-5.316 0.038,-0.288 1.956,-1.269 2.131,-2.137 -0.013,0.056 -1.393,-1.699 -1.068,-3.186 1.164,-5.228 2.035,-11.736 2.26,-18.461 h 174.639 z"
           style="fill:#cd264e;fill-opacity:1;fill-rule:nonzero;stroke:none"
           id="path12403"
           inkscape:connector-curvature="0" /><path
           d="m 564.381,250.59 c 0.006,0.75 -0.123,1.338 -0.33,1.816 h -3.076 c 1.046,-0.695 2.154,-1.328 3.406,-1.816"
           style="fill:#cd264e;fill-opacity:1;fill-rule:nonzero;stroke:none"
           id="path12405"
           inkscape:connector-curvature="0" /><path
           d="m 33.572,252.406 h -7.26 c -0.443,-0.293 -0.872,-0.558 -1.281,-0.748 2.532,-0.478 5.05,-0.273 8.541,0.748"
           style="fill:#cd264e;fill-opacity:1;fill-rule:nonzero;stroke:none"
           id="path12407"
           inkscape:connector-curvature="0" /><path
           d="m 55.941,316.955 c 0.189,-4.047 0.215,-7.827 -0.066,-11.044 0.057,1.994 -0.818,2.256 -2.13,1.07 0.062,1.361 1.362,1.467 1.068,3.191 -2.905,0.094 -2.149,-1.781 -4.26,0 2.03,-4.986 0.506,-9.703 1.068,-14.901 0.4,-3.753 2.773,-8.652 2.124,-11.695 -2.012,-9.422 -12.095,-8.314 -19.142,-13.832 -0.8,-3.279 2.917,-2.043 2.124,-5.322 -1.739,-0.25 -4.604,-2.42 -6.791,-3.844 -0.226,-0.148 -0.447,-0.289 -0.657,-0.418 -0.369,-0.219 -1.322,-0.721 -2.035,-1.084 3.479,-0.84 6.531,2.725 4.16,-1.039 1.828,1.012 3.697,1.793 5.18,2.541 0.438,0.221 0.846,0.438 1.205,0.656 -0.563,-0.349 -0.762,0.5 0,1.069 1.599,1.181 4.623,2.394 5.322,1.056 -0.055,0.106 -3.323,-1.619 -3.192,-2.125 1.865,-0.959 3.37,2.705 4.123,0.479 -3.489,-0.387 -4.594,-3.154 -7.315,-4.317 4.36,-1.105 8.703,3.282 11.701,0 -2.167,0.913 -6.603,-0.917 -3.193,-2.117 0.013,1.387 2.949,1.35 3.193,0 -2.905,0.768 -2.142,-2.119 -4.254,-2.136 -2.079,2.591 -10.321,1.048 -10.465,-1.586 -0.941,-0.51 -1.742,-1.147 -2.305,-2.024 2.002,-0.713 2.821,-0.783 3.213,-0.605 -0.005,-0.012 -0.01,-0.022 -0.014,-0.033 1.94,0.084 3.036,0.398 3.685,0.798 0.179,-0.047 0.368,-0.099 0.569,-0.16 0.411,1.483 0.842,2.071 1.312,2.358 0.756,-0.153 2.694,-0.221 4.005,0.189 -4.374,-4.498 4.248,-1.994 5.316,-4.254 -1.543,-0.574 -5.491,1.248 -5.316,-1.068 4.06,-1.838 6.996,1.818 7.447,-3.188 -3.461,-0.086 -6.548,-0.543 -8.51,-2.123 3.961,-1.787 6.685,1.649 10.634,2.123 -0.088,-0.006 2.705,-1.179 4.254,-1.06 6.716,0.492 11.128,1.174 17.025,-2.125 -4.779,-2.387 -9.434,3.961 -11.702,-2.131 4.261,1.389 6.997,-1.836 9.577,-2.129 2.2,-0.238 4.699,2.105 6.385,0 -8.672,-3.943 -12.857,3.867 -22.341,0 -2.955,1.592 1.843,4.348 -1.068,5.322 -1.637,-2.23 -6.316,-0.388 -2.13,-3.193 -3.299,-0.119 -3.037,3.342 -7.447,2.131 -1.262,-4.461 4.485,-1.906 5.323,-4.26 -4.292,1.117 -1.331,-2.318 -3.193,-3.187 -3.011,-1.424 -6.66,1.693 -11.701,-1.069 6.079,-0.5 6.222,-0.338 10.632,-2.123 -0.518,3.504 6.142,4.453 6.386,1.061 -1.25,-0.162 -3.012,0.181 -3.192,-1.061 2.017,-2.012 6.203,3.742 8.515,-1.062 -2.012,-0.239 -2.35,1.193 -4.255,1.062 -0.881,-3.881 4.331,-2.262 5.317,-3.199 0.662,-0.613 -1.962,-2.086 0,-2.125 5.066,4.93 6.429,-2.936 11.701,0 -0.5,-4.404 4.98,-2.824 7.453,-4.26 0.113,1.299 0.307,2.524 2.125,2.129 2.324,-0.236 5.723,-4.803 7.447,-2.129 -1.832,-0.051 -2.737,0.824 -3.193,2.129 7.223,1.48 11.465,0.307 15.963,-3.18 -3.586,-0.681 -9.884,1.356 -11.708,-1.062 7.409,-2.117 14.095,2.037 19.143,-3.197 -1.887,-0.245 -5.324,1.068 -4.248,-2.131 20.803,-4.012 39.801,-9.846 62.762,-11.701 0.15,-1.413 -4.324,-3.206 -1.062,-4.249 0.625,5.579 20.523,2.905 21.279,2.118 0.649,-0.674 -1.963,-2.055 0,-2.118 0.513,1.256 1.125,2.405 2.13,3.18 4.468,-1.031 10.489,0 13.827,0 1.123,0 2.779,-1.168 3.186,-1.062 0.337,0.093 0.699,3.867 3.198,2.131 -0.4,-3.456 -3.736,-2.163 -5.323,-3.188 -0.874,-0.568 0.337,-1.768 -1.061,-2.129 0.398,0.1 -0.551,2.367 -2.125,2.129 -1.387,-0.219 -1,-1.725 -2.131,-2.129 -0.305,2.186 -2.842,2.117 -4.255,3.186 -0.425,-1.83 1.575,-2.731 0,-3.186 -7.146,0.33 -11.376,1.018 -18.086,1.068 -1.856,0.006 -3.436,-1.294 -5.323,-1.068 -1.393,0.162 -1.443,1.123 -3.186,1.068 -1.924,-0.076 -2.449,-1.275 -4.261,-1.068 -0.236,0.026 -2.748,2.018 -3.186,2.129 -5.766,1.395 -11.514,0.15 -17.025,1.057 -1.65,0.275 -2.774,1.742 -4.247,2.131 -1.669,0.437 -3.65,-0.344 -5.323,0 -1.85,0.375 -3.412,2.623 -5.324,3.191 -1.298,0.389 -2.923,-0.293 -4.249,0 -0.404,0.094 -2.634,1.955 -3.197,2.125 -3.881,1.131 -6.073,0.287 -9.572,1.068 -1.205,0.262 -2.374,2.024 -3.198,2.123 -1.937,0.258 -2.4,-0.998 -4.248,-1.06 -1.195,-0.045 -1.65,1.498 -2.138,0 5.011,-1.256 2.012,-3.088 0,-5.319 7.385,0.932 9.097,-4.341 14.894,-2.128 -2.062,-3.555 0.388,-0.577 3.2,-1.069 1.399,-0.238 2.161,-1.832 3.199,-2.119 1.598,-0.455 3.748,0.563 5.309,0 0.288,-0.111 0.712,-1.91 1.063,-2.129 3.511,-2.131 7.884,0.086 10.645,0 2.069,-0.082 5.611,-1.65 8.502,-2.131 8.172,-1.318 14.627,-1.631 21.274,-3.187 -5.948,0.943 -3.961,-1.08 -5.317,-3.192 -4.117,1.586 -15.076,1.899 -19.136,0 10.065,-0.986 27.802,-1.224 39.36,-6.39 -4.454,-0.213 -16.069,0.943 -8.516,-2.131 -3.448,-0.6 -5.354,0.324 -6.391,2.131 0.099,-0.338 -2.381,-3.313 -4.248,-2.131 -0.675,0.437 1.986,2.18 0,2.131 -0.557,-0.014 -1.25,-2.182 -3.192,-2.131 -3.811,0.119 -7.379,4.254 -11.702,2.131 1.255,-0.157 3.023,0.187 3.193,-1.057 -16.045,1.193 -33.207,4.998 -46.813,5.317 1.586,0.175 3.936,-0.381 4.26,1.068 -9.109,-0.594 -15.981,6.697 -23.403,4.254 5.879,-1.924 12.445,-3.16 18.081,-5.322 -1.887,-0.245 -5.324,1.074 -4.262,-2.137 2.812,-1.649 17.387,-4.192 17.031,-1.055 -2.174,-0.912 -5.873,1.674 -3.198,2.123 4.11,-2.93 9.009,-2.086 13.832,-3.191 0.311,-0.069 1.624,-2.026 2.136,-2.131 1.875,-0.369 4.298,0.594 6.373,0 1.449,-0.401 3.074,-2.711 4.26,-3.18 3.499,-1.412 6.261,-0.42 9.572,-1.062 2.586,1.429 0.662,2.117 2.131,3.179 2.679,0.401 4.71,-1.713 7.446,-2.117 3.93,-0.601 9.096,1.094 14.894,1.055 7.291,-0.037 16.425,-1.512 23.398,0 0.58,0.131 -0.182,2.025 1.074,2.125 5.461,0.48 14.631,-1.531 22.328,-1.063 1.265,0.08 2.42,0.168 3.5,0.245 v 139.101 z"
           style="fill:#cd264e;fill-opacity:1;fill-rule:nonzero;stroke:none"
           id="path12409"
           inkscape:connector-curvature="0" /><path
           d="m 187.792,170.174 c -5.136,-0.317 -9.659,-2.379 -13.832,-1.067 0.818,0.237 2.1,0.024 2.125,1.067 -4.568,-2.748 -8.686,0.125 -11.703,-3.203 17.963,-0.489 38.429,1.642 59.57,3.203 1.019,0.074 2.208,0.15 3.5,0.23 v 2.125 c -12.898,-1.416 -26.821,-1.576 -39.66,-2.355"
           style="fill:#cd264e;fill-opacity:1;fill-rule:nonzero;stroke:none"
           id="path12411"
           inkscape:connector-curvature="0" /><path
           d="m 291.566,162.1 c 0.922,0.222 1.997,0.472 3.671,0.621 -0.062,-1.362 -1.363,-1.473 -1.068,-3.186 3.785,-1.656 0.656,3.611 3.192,3.186 2.205,-0.637 6.991,1.312 7.453,-1.067 -3.017,0.887 -2.767,-1.5 -5.323,-1.062 -1.318,-3.436 3.443,-0.813 2.13,-4.256 -1.736,0.781 -4.635,-2.111 -2.13,-2.123 0.144,1.75 7.304,1.75 7.441,0 -2.936,1.398 -3.642,-4.211 -2.118,-1.063 3.106,-0.287 3.261,2.405 6.379,2.125 -0.324,-1.287 3.075,-3.668 3.193,-1.062 -5.655,1.773 6.291,2.117 9.564,2.123 -1.792,-3.705 -0.387,-3.717 2.138,-5.322 -1.787,-1.469 -7.061,-4.91 -5.323,-6.379 3.236,4.392 13.613,5.492 13.831,9.578 5.66,0.725 7.535,5.234 14.894,4.254 -0.156,-1.262 -1.899,-2.41 0,-3.192 3.006,3.797 8.166,5.422 10.633,7.446 2.987,2.437 5.705,4.642 8.51,6.386 2.624,1.618 3.642,2.817 5.323,4.248 1.175,1.018 3.105,1.1 4.255,2.137 2.717,2.412 5.779,6.76 7.453,8.502 1.475,1.543 3.248,2.074 4.248,3.199 1.262,1.401 1.887,3.705 3.192,5.317 1.351,1.656 3.005,2.617 4.255,4.261 3.598,4.698 7.059,9.633 9.578,13.825 2.374,3.943 4.591,7.111 5.323,11.695 6.44,2.424 11.445,6.285 19.148,7.455 2.66,-10.146 -1.437,-20.463 -2.131,-30.857 -0.093,-1.344 1.169,-1.463 1.063,-3.186 -0.381,-6.31 -2.344,-14.269 -1.063,-20.211 0.338,-1.582 1.9,-2.48 2.131,-4.262 0.412,-3.216 -1.199,-7.564 1.063,-10.638 -0.188,2.941 1.636,3.66 3.185,2.129 -0.886,-1.237 -1.398,-2.854 -1.056,-5.315 5.779,1.629 2.044,-4.867 2.125,-5.318 -0.02,0.051 1.924,-1.785 2.13,-2.129 3.386,-5.85 -1.974,-12.889 -1.074,-20.219 6.503,-0.824 3.823,7.535 5.323,11.701 1.074,1.17 4.573,5.225 2.124,6.393 0.331,-1.293 -3.068,-3.674 -3.187,-1.068 0.514,4.441 3.486,6.447 6.385,8.509 -2.149,0.868 0.669,5.61 1.062,7.446 -3.998,0.812 -0.73,-5.647 -5.322,-4.254 0.137,1.767 -3.443,6.765 1.062,6.385 -0.144,-1.262 -1.888,-2.413 0,-3.198 4.547,2.805 5.022,7.164 5.323,9.576 3.292,-2.935 4.097,-9.027 3.185,-11.695 -0.037,-0.131 -2.111,0.1 -2.123,0 -0.15,-2.549 1.299,-5.029 1.062,-7.447 -0.144,-1.512 -1.775,-2.236 -2.124,-4.254 -0.287,-1.73 0.224,-3.592 0,-5.322 4.173,1.461 3.135,6.652 5.322,9.576 0.676,0.894 2.21,0.949 2.99,1.857 -0.8,-0.791 -0.232,4.323 1.271,3.461 0.663,-1.82 3.212,-1.763 4.249,-3.193 -0.637,-1.594 -5.349,-4.442 -3.188,-5.317 1.588,1.249 3,2.668 4.249,4.254 1.219,-3.341 -1.668,-2.591 -2.124,-4.254 3.237,-3.337 4.592,6.135 8.51,2.118 0.312,6.785 3.385,10.808 9.584,11.707 1.162,3.088 1.311,7.191 5.31,7.453 -0.175,-2.742 -4.511,-6.74 -2.124,-8.52 1.787,3.774 3.81,7.428 5.322,10.633 0.551,1.193 1.9,1.986 2.125,3.205 0.037,0.219 -1.706,0.779 -1.063,2.117 0.219,0.469 1.688,1.455 2.125,2.137 2.137,3.299 3.086,6.91 6.378,8.51 1.431,-7.842 -3.567,-14.844 -2.13,-19.149 3.149,3.231 2.061,10.713 5.323,13.819 3.193,-8.604 -3.386,-18.237 -2.124,-24.459 2.424,4.31 1.662,8.984 3.186,13.82 0.775,2.455 3.286,4.859 4.254,7.459 1.182,3.149 0.201,4.492 1.068,6.385 1.263,2.724 3.737,6.353 4.256,8.504 0.393,1.674 -0.42,3.66 0,5.316 0.106,0.424 1.993,2.606 2.123,3.197 0.694,3.049 0.108,6.512 1.069,9.573 0.1,0.299 2,0.631 2.125,1.062 1.185,4.36 0.336,6.278 1.061,9.576 1.687,7.541 5.616,14.014 6.386,21.28 3.023,0.894 6.453,2.011 7.445,1.062 0.875,-0.83 0.976,-0.318 2.131,-1.062 0.944,-0.606 2.662,-2.893 3.193,-3.192 1.825,-1.049 4.423,-0.949 6.385,-2.131 1.681,-1.011 2.992,-3.673 4.254,-4.253 2.831,-1.295 6.698,-1.032 9.567,-2.125 5.159,-1.961 8.233,-5.661 12.769,-4.254 -3.012,1.593 -4.917,4.296 -9.571,4.254 -3.698,3.912 -7.236,8.072 -11.702,11.701 -0.969,0.775 -3.905,1.006 -5.317,2.119 -1.561,1.236 -3.023,3.297 -3.199,5.322 3.974,-0.682 5.223,-4.697 9.578,-2.125 1.255,-2.004 5.517,-6.459 7.442,-4.254 -1.776,1.725 -4.899,3.211 -7.442,5.317 -2.419,2 -6.129,4.199 -5.316,6.378 3.448,-2.955 9.071,-9.328 12.758,-8.501 -3.836,1.16 -1.888,3.205 -3.188,4.248 0.645,-0.512 -2.435,-1 -2.124,1.068 5.973,-0.182 -3.698,3.598 0,4.254 1.249,-0.156 2.411,-1.893 3.187,0 -1.121,0.848 -2.94,1 -3.793,2.113 h 2.172 c 0.357,-0.533 0.737,-1.041 1.621,-1.045 0.11,0.373 0.157,0.717 0.176,1.045 h 1.825 c -0.645,0.621 -1.317,1.02 -1.985,1.332 -0.056,0.17 -0.116,0.34 -0.196,0.496 h -0.984 c -1.169,0.455 -2.26,0.875 -3.084,2.016 0.361,2.068 -0.176,9.965 -4.255,7.447 1.743,0.774 4.623,-2.113 2.124,-2.125 -3.2,1.35 -3.661,4.268 -2.124,6.385 1.587,-2.311 5.322,-2.481 5.316,-6.385 5.903,1.287 6.46,-2.762 9.571,-4.254 -0.949,5.073 -6.123,5.928 -8.509,9.571 1.412,2.605 3.961,-1.168 4.25,1.068 -4.694,3.81 -9.584,7.428 -13.821,11.695 5.835,1.582 4.66,-3.842 8.509,-4.248 2.836,-0.125 -2.936,4.168 -1.061,4.248 1.349,0.063 3.648,-7.541 7.433,-4.248 -5.135,3.004 -7.396,8.903 -11.688,12.758 1.243,1.225 3.76,1.213 6.378,1.068 -0.955,-3.205 2.505,-1.781 4.25,-3.199 2.766,-2.219 4.896,-7.765 7.458,-6.379 -4.348,3.881 -9.203,9.615 -13.831,11.696 -1.057,0.488 -3.663,3.637 -4.255,4.268 -1.238,1.293 -1.456,3.48 -3.193,4.254 3.792,0.544 6.473,-5.504 8.509,-3.192 -0.912,1.311 -6.853,2.942 -4.255,4.254 2.319,-1.273 6.186,-6.516 8.504,-4.254 -2.062,-0.125 -3.156,2.274 -4.249,3.192 -1.362,1.13 -4.454,1.761 -4.255,4.255 3.593,1.7 4.535,-4.517 6.379,-1.068 -3.071,1.252 -5.319,3.316 -7.224,5.726 H 291.566 Z"
           style="fill:#cd264e;fill-opacity:1;fill-rule:nonzero;stroke:none"
           id="path12413"
           inkscape:connector-curvature="0" /><path
           d="m 291.566,381.07 v 149.572 c -3.795,-0.018 -7.56,-0.138 -11.229,-0.63 -2.268,-0.293 -4.106,-1.724 -6.379,-2.124 -4.279,-0.743 -9.559,0.201 -11.709,0 -3.485,-0.312 -7.297,-1.843 -10.632,-2.124 -5.948,-0.506 -12.27,0.55 -18.081,0 -1.921,-0.184 -3.975,-0.617 -6.084,-1.112 V 381.07 Z"
           style="fill:#ffffff;fill-opacity:1;fill-rule:nonzero;stroke:none"
           id="path12415"
           inkscape:connector-curvature="0" /><path
           d="M 227.452,316.955 V 177.854 c 5.886,0.412 9.252,0.435 12.457,-3.424 -3.987,-0.819 -8.165,-1.428 -12.457,-1.901 v -2.125 c 3.857,0.241 8.623,0.51 12.457,0.826 11.639,0.975 28.432,6.112 38.303,3.2 -0.817,0.236 -2.223,-1.049 -2.123,-1.075 2.205,-0.431 3.779,1.975 5.316,0 -2.718,-0.476 -4.898,-1.494 -6.384,-3.181 3.785,-0.904 6.371,3.082 7.446,-1.067 -5.136,-0.189 -7.259,-3.38 -10.64,-5.316 5.042,0.543 4.249,1.336 2.131,-2.137 3.023,0.186 4.436,1.948 7.447,2.137 0.006,-1.07 -0.863,-1.275 -1.068,-2.137 3.579,-0.113 6.566,3.092 8.509,2.137 0.325,-0.164 -1.113,-2.137 -1.056,-2.137 1.648,-0.08 2.585,0.16 3.776,0.446 v 154.855 z"
           style="fill:#ffffff;fill-opacity:1;fill-rule:nonzero;stroke:none"
           id="path12417"
           inkscape:connector-curvature="0" /><path
           d="m 52.683,371.867 c -2.012,0.124 -0.744,3.518 -3.193,3.192 -0.018,-4.779 3.943,-7.715 0,-10.64 3.543,0.738 1.706,-2.192 1.063,-3.186 6.39,-0.486 2.429,-2.611 2.13,-6.384 4.061,-2.312 3.336,0.98 5.316,3.199 0.731,-6.867 -0.693,-12.296 3.199,-12.777 -4.367,-3.055 -0.394,-10.452 0,-15.944 0.057,-0.987 -1.062,-1.973 -1.068,-2.137 -0.063,-2.555 3.086,-6.441 0,-7.445 -1.081,4.359 -1.868,9.201 -2.131,11.701 -0.537,5.16 0.906,13.026 -4.254,13.825 0.494,-8.606 1.768,-19.154 2.196,-28.316 h 171.511 64.114 257.081 c -0.443,0.56 -0.873,1.133 -1.284,1.725 2.473,0.352 4.584,1.088 5.323,3.188 -4.424,0.193 -5.854,-1.842 -8.516,1.068 -0.775,2.131 2.043,2.063 2.131,3.193 -0.026,-0.281 -2.031,0.586 -2.131,1.061 -0.406,1.957 1.699,4.85 2.131,7.441 -4.211,-1.4 -1.613,11.065 -1.063,11.715 0.6,0.699 3.505,-0.613 3.193,1.055 -1.83,-0.062 -2.73,0.825 -3.193,2.124 4.041,4.461 -0.238,17.262 7.448,18.093 -1.175,5.785 2.242,6.967 4.248,9.566 -1.83,0.424 -2.725,-1.575 -3.187,0 6.417,2.899 14.145,-1.587 19.143,3.192 -6.96,0.575 -12.109,-0.649 -18.081,-1.063 -0.369,0.433 -0.647,1.049 -0.842,1.757 H 291.566 227.452 52.813 c 0.101,-3.056 0.069,-6.156 -0.13,-9.203"
           style="fill:#ffffff;fill-opacity:1;fill-rule:nonzero;stroke:none"
           id="path12419"
           inkscape:connector-curvature="0" /></g></g></g></svg>